<mxfile host="app.diagrams.net" modified="2024-06-25T20:41:59.244Z" agent="Mozilla/5.0 (Windows NT 10.0; Win64; x64; rv:109.0) Gecko/20100101 Firefox/115.0" etag="p_1wNtQVz0DoMzr5ZvAz" version="24.6.3" type="github">
  <diagram name="Страница — 1" id="Ok-m3F2jx5x2fQCQR_L3">
    <mxGraphModel dx="934" dy="464" grid="1" gridSize="10" guides="1" tooltips="1" connect="1" arrows="1" fold="1" page="1" pageScale="1" pageWidth="827" pageHeight="1169" math="0" shadow="0">
      <root>
        <mxCell id="0" />
        <mxCell id="1" parent="0" />
        <mxCell id="c9M6_-3urOuxoyCKMN0X-1" value="пользователь" style="shape=umlActor;verticalLabelPosition=bottom;verticalAlign=top;html=1;" parent="1" vertex="1">
          <mxGeometry x="90" y="80" width="30" height="60" as="geometry" />
        </mxCell>
        <mxCell id="c9M6_-3urOuxoyCKMN0X-13" value="" style="shape=ellipse;container=1;horizontal=1;horizontalStack=0;resizeParent=1;resizeParentMax=0;resizeLast=0;html=1;dashed=0;collapsible=0;" parent="1" vertex="1">
          <mxGeometry x="240" y="70" width="120" height="60" as="geometry" />
        </mxCell>
        <mxCell id="c9M6_-3urOuxoyCKMN0X-14" value="Авторизация" style="html=1;strokeColor=none;fillColor=none;align=center;verticalAlign=middle;rotatable=0;whiteSpace=wrap;" parent="c9M6_-3urOuxoyCKMN0X-13" vertex="1">
          <mxGeometry x="-7.5" y="25.71" width="112.5" height="4.29" as="geometry" />
        </mxCell>
        <mxCell id="c9M6_-3urOuxoyCKMN0X-18" style="edgeStyle=orthogonalEdgeStyle;rounded=0;orthogonalLoop=1;jettySize=auto;html=1;exitX=0.5;exitY=1;exitDx=0;exitDy=0;" parent="1" source="c9M6_-3urOuxoyCKMN0X-13" target="c9M6_-3urOuxoyCKMN0X-13" edge="1">
          <mxGeometry relative="1" as="geometry" />
        </mxCell>
        <mxCell id="c9M6_-3urOuxoyCKMN0X-19" value="" style="shape=ellipse;container=1;horizontal=1;horizontalStack=0;resizeParent=1;resizeParentMax=0;resizeLast=0;html=1;dashed=0;collapsible=0;" parent="1" vertex="1">
          <mxGeometry x="516.25" y="55" width="146" height="65" as="geometry" />
        </mxCell>
        <mxCell id="c9M6_-3urOuxoyCKMN0X-20" value="Авторизация через соцсери" style="html=1;strokeColor=none;fillColor=none;align=center;verticalAlign=middle;rotatable=0;whiteSpace=wrap;" parent="c9M6_-3urOuxoyCKMN0X-19" vertex="1">
          <mxGeometry x="4.5600000000000005" y="27.857142857142858" width="136.88" height="4.642857142857143" as="geometry" />
        </mxCell>
        <mxCell id="c9M6_-3urOuxoyCKMN0X-21" style="edgeStyle=orthogonalEdgeStyle;rounded=0;orthogonalLoop=1;jettySize=auto;html=1;exitX=0.5;exitY=1;exitDx=0;exitDy=0;" parent="1" source="c9M6_-3urOuxoyCKMN0X-19" target="c9M6_-3urOuxoyCKMN0X-19" edge="1">
          <mxGeometry relative="1" as="geometry" />
        </mxCell>
        <mxCell id="c9M6_-3urOuxoyCKMN0X-22" value="" style="endArrow=none;html=1;endSize=12;startArrow=none;startSize=14;startFill=0;edgeStyle=orthogonalEdgeStyle;align=center;verticalAlign=bottom;endFill=0;rounded=0;exitX=0.5;exitY=0.5;exitDx=0;exitDy=0;exitPerimeter=0;entryX=0;entryY=0.5;entryDx=0;entryDy=0;" parent="1" source="c9M6_-3urOuxoyCKMN0X-1" target="c9M6_-3urOuxoyCKMN0X-13" edge="1">
          <mxGeometry y="3" relative="1" as="geometry">
            <mxPoint x="330" y="210" as="sourcePoint" />
            <mxPoint x="490" y="210" as="targetPoint" />
          </mxGeometry>
        </mxCell>
        <mxCell id="c9M6_-3urOuxoyCKMN0X-23" value="&amp;lt;&amp;lt;Extends&amp;gt;&amp;gt;" style="endArrow=open;startArrow=none;endFill=0;startFill=0;endSize=8;html=1;verticalAlign=bottom;dashed=1;labelBackgroundColor=none;rounded=0;exitX=0;exitY=1;exitDx=0;exitDy=0;entryX=1;entryY=0.5;entryDx=0;entryDy=0;" parent="1" source="c9M6_-3urOuxoyCKMN0X-20" target="c9M6_-3urOuxoyCKMN0X-13" edge="1">
          <mxGeometry width="160" relative="1" as="geometry">
            <mxPoint x="330" y="210" as="sourcePoint" />
            <mxPoint x="490" y="210" as="targetPoint" />
          </mxGeometry>
        </mxCell>
        <mxCell id="c9M6_-3urOuxoyCKMN0X-24" value="" style="shape=ellipse;container=1;horizontal=1;horizontalStack=0;resizeParent=1;resizeParentMax=0;resizeLast=0;html=1;dashed=0;collapsible=0;" parent="1" vertex="1">
          <mxGeometry x="240" y="140" width="120" height="60" as="geometry" />
        </mxCell>
        <mxCell id="c9M6_-3urOuxoyCKMN0X-25" value="Создание путешествия" style="html=1;strokeColor=none;fillColor=none;align=center;verticalAlign=middle;rotatable=0;whiteSpace=wrap;" parent="c9M6_-3urOuxoyCKMN0X-24" vertex="1">
          <mxGeometry x="3.75" y="25.71" width="112.5" height="4.29" as="geometry" />
        </mxCell>
        <mxCell id="c9M6_-3urOuxoyCKMN0X-26" value="" style="shape=ellipse;container=1;horizontal=1;horizontalStack=0;resizeParent=1;resizeParentMax=0;resizeLast=0;html=1;dashed=0;collapsible=0;" parent="1" vertex="1">
          <mxGeometry x="680" y="90" width="120" height="60" as="geometry" />
        </mxCell>
        <mxCell id="c9M6_-3urOuxoyCKMN0X-27" value="Выбор города на карте" style="html=1;strokeColor=none;fillColor=none;align=center;verticalAlign=middle;rotatable=0;whiteSpace=wrap;" parent="c9M6_-3urOuxoyCKMN0X-26" vertex="1">
          <mxGeometry x="3.75" y="25.71" width="112.5" height="4.29" as="geometry" />
        </mxCell>
        <mxCell id="c9M6_-3urOuxoyCKMN0X-28" value="" style="shape=ellipse;container=1;horizontal=1;horizontalStack=0;resizeParent=1;resizeParentMax=0;resizeLast=0;html=1;dashed=0;collapsible=0;" parent="1" vertex="1">
          <mxGeometry x="430" y="140" width="120" height="60" as="geometry" />
        </mxCell>
        <mxCell id="c9M6_-3urOuxoyCKMN0X-29" value="Добавление страны" style="html=1;strokeColor=none;fillColor=none;align=center;verticalAlign=middle;rotatable=0;whiteSpace=wrap;" parent="c9M6_-3urOuxoyCKMN0X-28" vertex="1">
          <mxGeometry x="3.75" y="20" width="112.5" height="10" as="geometry" />
        </mxCell>
        <mxCell id="c9M6_-3urOuxoyCKMN0X-30" value="&amp;lt;&amp;lt;Extends&amp;gt;&amp;gt;" style="endArrow=open;startArrow=none;endFill=0;startFill=0;endSize=8;html=1;verticalAlign=bottom;dashed=1;labelBackgroundColor=none;rounded=0;entryX=0.908;entryY=0.133;entryDx=0;entryDy=0;entryPerimeter=0;exitX=0.108;exitY=0.833;exitDx=0;exitDy=0;exitPerimeter=0;" parent="1" source="c9M6_-3urOuxoyCKMN0X-26" target="c9M6_-3urOuxoyCKMN0X-37" edge="1">
          <mxGeometry width="160" relative="1" as="geometry">
            <mxPoint x="655" y="170" as="sourcePoint" />
            <mxPoint x="370" y="90" as="targetPoint" />
          </mxGeometry>
        </mxCell>
        <mxCell id="c9M6_-3urOuxoyCKMN0X-31" value="&amp;lt;&amp;lt;Includes&amp;gt;&amp;gt;" style="endArrow=open;startArrow=none;endFill=0;startFill=0;endSize=8;html=1;verticalAlign=bottom;dashed=1;labelBackgroundColor=none;rounded=0;exitX=1;exitY=0.5;exitDx=0;exitDy=0;entryX=0;entryY=0.5;entryDx=0;entryDy=0;" parent="1" source="c9M6_-3urOuxoyCKMN0X-24" target="c9M6_-3urOuxoyCKMN0X-28" edge="1">
          <mxGeometry x="-0.0101" width="160" relative="1" as="geometry">
            <mxPoint x="659" y="184" as="sourcePoint" />
            <mxPoint x="560" y="190" as="targetPoint" />
            <mxPoint as="offset" />
          </mxGeometry>
        </mxCell>
        <mxCell id="c9M6_-3urOuxoyCKMN0X-33" value="" style="endArrow=none;html=1;endSize=12;startArrow=none;startSize=14;startFill=0;edgeStyle=orthogonalEdgeStyle;align=center;verticalAlign=bottom;endFill=0;rounded=0;exitX=0.5;exitY=0.5;exitDx=0;exitDy=0;exitPerimeter=0;entryX=0;entryY=0.5;entryDx=0;entryDy=0;" parent="1" source="c9M6_-3urOuxoyCKMN0X-1" target="c9M6_-3urOuxoyCKMN0X-24" edge="1">
          <mxGeometry y="3" relative="1" as="geometry">
            <mxPoint x="115" y="120" as="sourcePoint" />
            <mxPoint x="250" y="90" as="targetPoint" />
          </mxGeometry>
        </mxCell>
        <mxCell id="c9M6_-3urOuxoyCKMN0X-34" value="" style="shape=ellipse;container=1;horizontal=1;horizontalStack=0;resizeParent=1;resizeParentMax=0;resizeLast=0;html=1;dashed=0;collapsible=0;" parent="1" vertex="1">
          <mxGeometry x="400" y="230" width="120" height="60" as="geometry" />
        </mxCell>
        <mxCell id="c9M6_-3urOuxoyCKMN0X-35" value="Добавление Переезда" style="html=1;strokeColor=none;fillColor=none;align=center;verticalAlign=middle;rotatable=0;whiteSpace=wrap;" parent="c9M6_-3urOuxoyCKMN0X-34" vertex="1">
          <mxGeometry x="3.75" y="20" width="112.5" height="10" as="geometry" />
        </mxCell>
        <mxCell id="c9M6_-3urOuxoyCKMN0X-36" value="&amp;lt;&amp;lt;Includes&amp;gt;&amp;gt;" style="endArrow=open;startArrow=none;endFill=0;startFill=0;endSize=8;html=1;verticalAlign=bottom;dashed=1;labelBackgroundColor=none;rounded=0;exitX=0.9;exitY=0.85;exitDx=0;exitDy=0;entryX=0.008;entryY=0.25;entryDx=0;entryDy=0;exitPerimeter=0;entryPerimeter=0;" parent="1" source="c9M6_-3urOuxoyCKMN0X-24" target="c9M6_-3urOuxoyCKMN0X-34" edge="1">
          <mxGeometry x="-0.0101" width="160" relative="1" as="geometry">
            <mxPoint x="370" y="180" as="sourcePoint" />
            <mxPoint x="440" y="180" as="targetPoint" />
            <mxPoint as="offset" />
          </mxGeometry>
        </mxCell>
        <mxCell id="c9M6_-3urOuxoyCKMN0X-37" value="" style="shape=ellipse;container=1;horizontal=1;horizontalStack=0;resizeParent=1;resizeParentMax=0;resizeLast=0;html=1;dashed=0;collapsible=0;" parent="1" vertex="1">
          <mxGeometry x="580" y="220" width="120" height="60" as="geometry" />
        </mxCell>
        <mxCell id="c9M6_-3urOuxoyCKMN0X-38" value="Добавление города" style="html=1;strokeColor=none;fillColor=none;align=center;verticalAlign=middle;rotatable=0;whiteSpace=wrap;" parent="c9M6_-3urOuxoyCKMN0X-37" vertex="1">
          <mxGeometry x="3.75" y="20" width="112.5" height="10" as="geometry" />
        </mxCell>
        <mxCell id="c9M6_-3urOuxoyCKMN0X-39" value="&amp;lt;&amp;lt;Includes&amp;gt;&amp;gt;" style="endArrow=open;startArrow=none;endFill=0;startFill=0;endSize=8;html=1;verticalAlign=bottom;dashed=1;labelBackgroundColor=none;rounded=0;exitX=1;exitY=0.5;exitDx=0;exitDy=0;entryX=0.367;entryY=-0.017;entryDx=0;entryDy=0;entryPerimeter=0;" parent="1" source="c9M6_-3urOuxoyCKMN0X-28" target="c9M6_-3urOuxoyCKMN0X-37" edge="1">
          <mxGeometry x="-0.0101" width="160" relative="1" as="geometry">
            <mxPoint x="370" y="180" as="sourcePoint" />
            <mxPoint x="440" y="180" as="targetPoint" />
            <mxPoint as="offset" />
          </mxGeometry>
        </mxCell>
        <mxCell id="c9M6_-3urOuxoyCKMN0X-42" value="" style="shape=ellipse;container=1;horizontal=1;horizontalStack=0;resizeParent=1;resizeParentMax=0;resizeLast=0;html=1;dashed=0;collapsible=0;" parent="1" vertex="1">
          <mxGeometry x="610" y="340" width="120" height="60" as="geometry" />
        </mxCell>
        <mxCell id="c9M6_-3urOuxoyCKMN0X-43" value="Добавление заметки" style="html=1;strokeColor=none;fillColor=none;align=center;verticalAlign=middle;rotatable=0;whiteSpace=wrap;" parent="c9M6_-3urOuxoyCKMN0X-42" vertex="1">
          <mxGeometry x="3.75" y="25.71" width="112.5" height="4.29" as="geometry" />
        </mxCell>
        <mxCell id="c9M6_-3urOuxoyCKMN0X-44" value="&amp;lt;&amp;lt;Extends&amp;gt;&amp;gt;" style="endArrow=open;startArrow=none;endFill=0;startFill=0;endSize=8;html=1;verticalAlign=bottom;dashed=1;labelBackgroundColor=none;rounded=0;entryX=0.592;entryY=1.05;entryDx=0;entryDy=0;entryPerimeter=0;exitX=0.358;exitY=0.033;exitDx=0;exitDy=0;exitPerimeter=0;" parent="1" source="c9M6_-3urOuxoyCKMN0X-42" target="c9M6_-3urOuxoyCKMN0X-37" edge="1">
          <mxGeometry width="160" relative="1" as="geometry">
            <mxPoint x="703" y="150" as="sourcePoint" />
            <mxPoint x="699" y="238" as="targetPoint" />
          </mxGeometry>
        </mxCell>
        <mxCell id="3PLU-ScZeUqUtGSL2gd4-1" value="" style="shape=ellipse;container=1;horizontal=1;horizontalStack=0;resizeParent=1;resizeParentMax=0;resizeLast=0;html=1;dashed=0;collapsible=0;" vertex="1" parent="1">
          <mxGeometry x="440" y="340" width="120" height="60" as="geometry" />
        </mxCell>
        <mxCell id="3PLU-ScZeUqUtGSL2gd4-2" value="Добавление отеля" style="html=1;strokeColor=none;fillColor=none;align=center;verticalAlign=middle;rotatable=0;whiteSpace=wrap;" vertex="1" parent="3PLU-ScZeUqUtGSL2gd4-1">
          <mxGeometry x="3.75" y="25.71" width="112.5" height="4.29" as="geometry" />
        </mxCell>
        <mxCell id="3PLU-ScZeUqUtGSL2gd4-5" value="&amp;lt;&amp;lt;Extends&amp;gt;&amp;gt;" style="endArrow=open;startArrow=none;endFill=0;startFill=0;endSize=8;html=1;verticalAlign=bottom;dashed=1;labelBackgroundColor=none;rounded=0;entryX=0.267;entryY=0.983;entryDx=0;entryDy=0;entryPerimeter=0;exitX=0.675;exitY=-0.017;exitDx=0;exitDy=0;exitPerimeter=0;" edge="1" parent="1" source="3PLU-ScZeUqUtGSL2gd4-1" target="c9M6_-3urOuxoyCKMN0X-37">
          <mxGeometry width="160" relative="1" as="geometry">
            <mxPoint x="663" y="352" as="sourcePoint" />
            <mxPoint x="661" y="293" as="targetPoint" />
          </mxGeometry>
        </mxCell>
        <mxCell id="3PLU-ScZeUqUtGSL2gd4-6" value="" style="shape=ellipse;container=1;horizontal=1;horizontalStack=0;resizeParent=1;resizeParentMax=0;resizeLast=0;html=1;dashed=0;collapsible=0;" vertex="1" parent="1">
          <mxGeometry x="228.75" y="280" width="120" height="60" as="geometry" />
        </mxCell>
        <mxCell id="3PLU-ScZeUqUtGSL2gd4-7" value="Добавление траты" style="html=1;strokeColor=none;fillColor=none;align=center;verticalAlign=middle;rotatable=0;whiteSpace=wrap;" vertex="1" parent="3PLU-ScZeUqUtGSL2gd4-6">
          <mxGeometry x="3.75" y="20" width="112.5" height="10" as="geometry" />
        </mxCell>
        <mxCell id="3PLU-ScZeUqUtGSL2gd4-8" value="&amp;lt;&amp;lt;Extends&amp;gt;&amp;gt;" style="endArrow=open;startArrow=none;endFill=0;startFill=0;endSize=8;html=1;verticalAlign=bottom;dashed=1;labelBackgroundColor=none;rounded=0;entryX=0.433;entryY=1.017;entryDx=0;entryDy=0;entryPerimeter=0;exitX=0.5;exitY=0;exitDx=0;exitDy=0;" edge="1" parent="1" source="3PLU-ScZeUqUtGSL2gd4-6" target="c9M6_-3urOuxoyCKMN0X-24">
          <mxGeometry width="160" relative="1" as="geometry">
            <mxPoint x="531" y="349" as="sourcePoint" />
            <mxPoint x="622" y="289" as="targetPoint" />
          </mxGeometry>
        </mxCell>
        <mxCell id="3PLU-ScZeUqUtGSL2gd4-9" value="" style="shape=ellipse;container=1;horizontal=1;horizontalStack=0;resizeParent=1;resizeParentMax=0;resizeLast=0;html=1;dashed=0;collapsible=0;" vertex="1" parent="1">
          <mxGeometry x="108.75" y="220" width="120" height="60" as="geometry" />
        </mxCell>
        <mxCell id="3PLU-ScZeUqUtGSL2gd4-10" value="Редактирование путешествия" style="html=1;strokeColor=none;fillColor=none;align=center;verticalAlign=middle;rotatable=0;whiteSpace=wrap;" vertex="1" parent="3PLU-ScZeUqUtGSL2gd4-9">
          <mxGeometry x="3.75" y="30" width="112.5" height="10" as="geometry" />
        </mxCell>
        <mxCell id="3PLU-ScZeUqUtGSL2gd4-11" value="" style="endArrow=none;html=1;endSize=12;startArrow=none;startSize=14;startFill=0;edgeStyle=orthogonalEdgeStyle;align=center;verticalAlign=bottom;endFill=0;rounded=0;exitX=0.567;exitY=0.667;exitDx=0;exitDy=0;exitPerimeter=0;entryX=0.5;entryY=0;entryDx=0;entryDy=0;" edge="1" parent="1" source="c9M6_-3urOuxoyCKMN0X-1" target="3PLU-ScZeUqUtGSL2gd4-9">
          <mxGeometry y="3" relative="1" as="geometry">
            <mxPoint x="115" y="120" as="sourcePoint" />
            <mxPoint x="250" y="180" as="targetPoint" />
          </mxGeometry>
        </mxCell>
        <mxCell id="3PLU-ScZeUqUtGSL2gd4-14" value="" style="shape=ellipse;container=1;horizontal=1;horizontalStack=0;resizeParent=1;resizeParentMax=0;resizeLast=0;html=1;dashed=0;collapsible=0;" vertex="1" parent="1">
          <mxGeometry x="100" y="310" width="120" height="60" as="geometry" />
        </mxCell>
        <mxCell id="3PLU-ScZeUqUtGSL2gd4-15" value="Просмотр чужого путешествия" style="html=1;strokeColor=none;fillColor=none;align=center;verticalAlign=middle;rotatable=0;whiteSpace=wrap;" vertex="1" parent="3PLU-ScZeUqUtGSL2gd4-14">
          <mxGeometry x="3.75" y="30" width="112.5" height="10" as="geometry" />
        </mxCell>
        <mxCell id="3PLU-ScZeUqUtGSL2gd4-16" value="" style="endArrow=none;html=1;endSize=12;startArrow=none;startSize=14;startFill=0;edgeStyle=orthogonalEdgeStyle;align=center;verticalAlign=bottom;endFill=0;rounded=0;entryX=0.011;entryY=0.198;entryDx=0;entryDy=0;entryPerimeter=0;" edge="1" parent="1" target="3PLU-ScZeUqUtGSL2gd4-14">
          <mxGeometry y="3" relative="1" as="geometry">
            <mxPoint x="110" y="110" as="sourcePoint" />
            <mxPoint x="179" y="230" as="targetPoint" />
          </mxGeometry>
        </mxCell>
        <mxCell id="3PLU-ScZeUqUtGSL2gd4-17" value="" style="shape=ellipse;container=1;horizontal=1;horizontalStack=0;resizeParent=1;resizeParentMax=0;resizeLast=0;html=1;dashed=0;collapsible=0;" vertex="1" parent="1">
          <mxGeometry x="294" y="380" width="120" height="60" as="geometry" />
        </mxCell>
        <mxCell id="3PLU-ScZeUqUtGSL2gd4-18" value="Копирование чужого путешествия" style="html=1;strokeColor=none;fillColor=none;align=center;verticalAlign=middle;rotatable=0;whiteSpace=wrap;" vertex="1" parent="3PLU-ScZeUqUtGSL2gd4-17">
          <mxGeometry x="3.75" y="30" width="112.5" height="10" as="geometry" />
        </mxCell>
        <mxCell id="3PLU-ScZeUqUtGSL2gd4-19" value="&amp;lt;&amp;lt;Extends&amp;gt;&amp;gt;" style="endArrow=open;startArrow=none;endFill=0;startFill=0;endSize=8;html=1;verticalAlign=bottom;dashed=1;labelBackgroundColor=none;rounded=0;entryX=0.913;entryY=0.884;entryDx=0;entryDy=0;entryPerimeter=0;exitX=0;exitY=0.5;exitDx=0;exitDy=0;" edge="1" parent="1" source="3PLU-ScZeUqUtGSL2gd4-17" target="3PLU-ScZeUqUtGSL2gd4-14">
          <mxGeometry width="160" relative="1" as="geometry">
            <mxPoint x="299" y="290" as="sourcePoint" />
            <mxPoint x="302" y="211" as="targetPoint" />
          </mxGeometry>
        </mxCell>
        <mxCell id="3PLU-ScZeUqUtGSL2gd4-20" value="" style="shape=ellipse;container=1;horizontal=1;horizontalStack=0;resizeParent=1;resizeParentMax=0;resizeLast=0;html=1;dashed=0;collapsible=0;" vertex="1" parent="1">
          <mxGeometry x="360" y="10" width="120" height="60" as="geometry" />
        </mxCell>
        <mxCell id="3PLU-ScZeUqUtGSL2gd4-21" value="Заполнение данных о себе" style="html=1;strokeColor=none;fillColor=none;align=center;verticalAlign=middle;rotatable=0;whiteSpace=wrap;" vertex="1" parent="3PLU-ScZeUqUtGSL2gd4-20">
          <mxGeometry x="-7.5" y="25.71" width="112.5" height="4.29" as="geometry" />
        </mxCell>
        <mxCell id="3PLU-ScZeUqUtGSL2gd4-25" value="&amp;lt;&amp;lt;Includes&amp;gt;&amp;gt;" style="endArrow=open;startArrow=none;endFill=0;startFill=0;endSize=8;html=1;verticalAlign=bottom;dashed=1;labelBackgroundColor=none;rounded=0;exitX=0.364;exitY=-0.037;exitDx=0;exitDy=0;entryX=0;entryY=1;entryDx=0;entryDy=0;exitPerimeter=0;" edge="1" parent="1" source="c9M6_-3urOuxoyCKMN0X-13" target="3PLU-ScZeUqUtGSL2gd4-21">
          <mxGeometry x="-0.0101" width="160" relative="1" as="geometry">
            <mxPoint x="294" y="39.41" as="sourcePoint" />
            <mxPoint x="364" y="39.41" as="targetPoint" />
            <mxPoint as="offset" />
          </mxGeometry>
        </mxCell>
      </root>
    </mxGraphModel>
  </diagram>
</mxfile>
